<svg xmlns="http://www.w3.org/2000/svg" width="640" height="640" viewBox="0 0 640 640"><rect width="640" height="640" fill="#fff"/><g font-family="Arial,Helvetica,sans-serif" fill="#153f65"><text x="32" y="46" font-size="24">Free LP</text><text x="608" y="46" text-anchor="end" font-size="20">#1157920892373161954…</text><text x="32" y="105" font-size="44">MAX / ZERO</text><text x="32" y="147" font-size="22">255-decimal token</text><text x="32" y="180" font-size="22">Zero-decimal token</text><text x="32" y="217" font-size="18">255 / 0 decimals</text></g><defs><pattern id="ripples" width="180" height="180" patternUnits="userSpaceOnUse" x="430" y="185"><g fill="none" stroke="#2878a0" stroke-width="1"><circle cx="58" cy="87" r="12"/><circle cx="122" cy="87" r="12"/><circle cx="58" cy="87" r="24"/><circle cx="122" cy="87" r="24"/><circle cx="58" cy="87" r="36"/><circle cx="122" cy="87" r="36"/><circle cx="58" cy="87" r="48"/><circle cx="122" cy="87" r="48"/><circle cx="58" cy="87" r="60"/><circle cx="122" cy="87" r="60"/><circle cx="58" cy="87" r="72"/><circle cx="122" cy="87" r="72"/><circle cx="58" cy="87" r="84"/><circle cx="122" cy="87" r="84"/></g></pattern><clipPath id="disc"><circle cx="520" cy="272" r="72"/></clipPath></defs><g clip-path="url(#disc)"><circle cx="520" cy="272" r="72" fill="#eff7fa"/><g transform="rotate(114 520 272)"><circle cx="488" cy="272" r="66" fill="#bde4ee"/><circle cx="552" cy="272" r="66" fill="#bde4ee"/><path d="M520 212 A66 66 0 0 1 520 332 A66 66 0 0 1 520 212Z" fill="#eac17b"/><rect x="430" y="182" width="180" height="180" fill="url(#ripples)"/></g></g><circle cx="520" cy="272" r="72" fill="none" stroke="#153f65" stroke-width="2"/><g font-family="Arial,Helvetica,sans-serif" fill="#153f65"><text x="32" y="277" font-size="22">Concentrated liquidity</text></g><path d="M32 365H608" stroke="#2878a0"/><g font-family="Arial,Helvetica,sans-serif" fill="#153f65"><text x="32" y="409" font-size="24">Price range</text><text x="32" y="440" font-size="18">MAX per ZERO</text><text x="32" y="492" font-size="18">Minimum</text><text x="608" y="505" text-anchor="end" font-size="44">~ 2.93887e-294</text><path d="M32 535H608" stroke="#cfe3e9"/><text x="32" y="575" font-size="18">Maximum</text><text x="608" y="588" text-anchor="end" font-size="44">~ 3.40265e-217</text></g></svg>
